<svg width="175" height="100" viewBox="0 0 175 100" fill="none" xmlns="http://www.w3.org/2000/svg">
<rect width="175" height="100" fill="white"/>
<path d="M47.5703 50.4531H47.8047C48.7969 50.4531 49.7188 50.75 50.5703 51.3438C51.3516 50.75 52.2578 50.4531 53.2891 50.4531H53.5234C55.1484 50.4531 56.3516 51.0938 57.1328 52.375C57.2578 52.6797 57.3203 52.9414 57.3203 53.1602V55.1523C57.3203 55.1992 57.2891 55.2227 57.2266 55.2227H55.4922C55.4297 55.2227 55.3984 55.1992 55.3984 55.1523V53.1602C55.0625 52.3633 54.3906 51.9648 53.3828 51.9648C52.5703 51.9648 51.9766 52.25 51.6016 52.8203V60.2969C51.4922 60.7656 51.1953 61 50.7109 61H50.5703C49.9766 60.9141 49.6797 60.6797 49.6797 60.2969V53.1602C49.3438 52.3633 48.6719 51.9648 47.6641 51.9648C46.3828 52.0977 45.7422 52.543 45.7422 53.3008V55.1523C45.7422 55.1992 45.7109 55.2227 45.6484 55.2227H43.9141C43.8516 55.2227 43.8203 55.1992 43.8203 55.1523V52.9375C43.8203 52.1875 44.4453 51.4844 45.6953 50.8281C46.3672 50.5781 46.9922 50.4531 47.5703 50.4531ZM43.9141 56.043H45.6484C45.7109 56.0508 45.7422 56.0742 45.7422 56.1133V60.2969C45.6328 60.7656 45.3359 61 44.8516 61H44.7109C44.1172 60.9141 43.8203 60.6797 43.8203 60.2969V56.1133C43.8281 56.0664 43.8594 56.043 43.9141 56.043ZM55.4922 56.043H57.2266C57.2891 56.0508 57.3203 56.0742 57.3203 56.1133V60.2969C57.2109 60.7656 56.9141 61 56.4297 61H56.2891C55.6953 60.9141 55.3984 60.6797 55.3984 60.2969V56.1133C55.4062 56.0664 55.4375 56.043 55.4922 56.043Z" fill="black"/>
<path d="M70.7109 50.4531H79.6641C81.2656 50.4531 82.4375 51.1367 83.1797 52.5039C83.3047 52.793 83.3672 53.0898 83.3672 53.3945V53.5469C83.3672 54.8203 82.5078 55.75 80.7891 56.3359C80.4219 56.4375 80.0469 56.4883 79.6641 56.4883H70.7109C70.1172 56.4023 69.8203 56.168 69.8203 55.7852V55.668C69.9297 55.1992 70.2266 54.9648 70.7109 54.9648H79.6172C80.4297 54.9648 81.0078 54.6172 81.3516 53.9219C81.4141 53.8203 81.4453 53.6836 81.4453 53.5117V53.4297C81.4453 52.7812 81.0078 52.3242 80.1328 52.0586C80.0078 52.0039 79.8359 51.9766 79.6172 51.9766H71.7422V54.332C71.7422 54.3789 71.7109 54.4023 71.6484 54.4023H69.9609C69.8984 54.4023 69.8672 54.3789 69.8672 54.332V51.0156C69.8672 50.7188 70.1484 50.5312 70.7109 50.4531ZM69.9609 57.0508H71.6484C71.7109 57.0586 71.7422 57.082 71.7422 57.1211V60.4375C71.7422 60.7188 71.4609 60.9062 70.8984 61H70.7578C70.1641 60.9141 69.8672 60.6797 69.8672 60.2969V57.1211C69.875 57.0742 69.9062 57.0508 69.9609 57.0508Z" fill="black"/>
<path d="M86.2832 54.0898H86.3887C86.834 54.1543 87.0566 54.3301 87.0566 54.6172V57.7812C87.0566 59.2812 87.9941 60.2627 89.8691 60.7256C90.0977 60.7607 90.3672 60.7871 90.6777 60.8047C92.0547 60.8047 93.1445 60.2598 93.9473 59.1699C94.1816 58.7891 94.2988 58.3262 94.2988 57.7812V54.6172C94.3809 54.2656 94.6035 54.0898 94.9668 54.0898H95.0723C95.5176 54.1543 95.7402 54.3301 95.7402 54.6172V58.1152C95.7402 59.5801 94.8027 60.7461 92.9277 61.6133C92.166 61.8711 91.4395 62 90.748 62H90.5723C88.7617 62 87.3086 61.3232 86.2129 59.9697C85.8145 59.3604 85.6152 58.8623 85.6152 58.4756V54.6172C85.6973 54.2656 85.9199 54.0898 86.2832 54.0898Z" fill="black"/>
<path d="M99.248 54.0898H105.963C107.164 54.0898 108.043 54.6025 108.6 55.6279C108.693 55.8447 108.74 56.0674 108.74 56.2959V56.4102C108.74 57.3652 108.096 58.0625 106.807 58.502C106.531 58.5781 106.25 58.6162 105.963 58.6162H100.057V61.4727C99.9746 61.8242 99.752 62 99.3887 62H99.2832C98.8379 61.9355 98.6152 61.7598 98.6152 61.4727V57.8955C98.6152 57.6846 98.8262 57.5439 99.248 57.4736H105.928C106.537 57.4736 106.971 57.2129 107.229 56.6914C107.275 56.6152 107.299 56.5127 107.299 56.3838V56.3223C107.299 55.8359 106.971 55.4932 106.314 55.2939C106.221 55.2529 106.092 55.2324 105.928 55.2324H100.021V55.5137C99.9395 55.8711 99.7168 56.0498 99.3535 56.0498H99.248C98.8262 55.9795 98.6152 55.8389 98.6152 55.6279V54.5117C98.6152 54.2891 98.8262 54.1484 99.248 54.0898Z" fill="black"/>
<path d="M116.045 54.0898H121.107C121.553 54.1543 121.775 54.3301 121.775 54.6172V54.6963C121.693 55.0479 121.471 55.2236 121.107 55.2236H116.643C114.82 55.2236 113.66 55.8535 113.162 57.1133C113.115 57.3887 113.092 57.5938 113.092 57.7285V58.3613C113.092 59.4688 113.807 60.2568 115.236 60.7256C115.693 60.8193 116.162 60.8662 116.643 60.8662H121.107C121.553 60.9248 121.775 61.1006 121.775 61.3936V61.4727C121.693 61.8242 121.471 62 121.107 62H116.045C114.504 62 113.227 61.3994 112.213 60.1982C111.814 59.624 111.615 59.0586 111.615 58.502V57.5879C111.615 56.3691 112.377 55.3613 113.9 54.5645C114.639 54.248 115.354 54.0898 116.045 54.0898ZM114.885 57.4473H118.611C119.057 57.5117 119.279 57.6875 119.279 57.9746V58.0625C119.197 58.4141 118.975 58.5898 118.611 58.5898H114.885C114.439 58.5254 114.217 58.3496 114.217 58.0625V57.9746C114.299 57.623 114.521 57.4473 114.885 57.4473Z" fill="black"/>
<path d="M125.248 54.0898H131.963C133.164 54.0898 134.043 54.5996 134.6 55.6191C134.693 55.8359 134.74 56.0586 134.74 56.2871V56.4014C134.74 57.3506 134.096 58.0479 132.807 58.4932C132.531 58.5635 132.25 58.5986 131.963 58.5986H126.057V61.4463C125.975 61.7979 125.752 61.9736 125.389 61.9736H125.283C124.838 61.9092 124.615 61.7334 124.615 61.4463V57.8779C124.615 57.667 124.826 57.5264 125.248 57.4561H131.928C132.537 57.4561 132.971 57.1982 133.229 56.6826C133.275 56.6064 133.299 56.5039 133.299 56.375V56.3223C133.299 55.8359 132.971 55.4902 132.314 55.2852C132.221 55.25 132.092 55.2324 131.928 55.2324H126.021V55.5137C125.939 55.8652 125.717 56.041 125.354 56.041H125.248C124.826 55.9707 124.615 55.8301 124.615 55.6191V54.5117C124.615 54.2891 124.826 54.1484 125.248 54.0898ZM133.299 58.8008H133.334C134.23 60.418 134.699 61.2998 134.74 61.4463C134.623 61.8154 134.4 62 134.072 62C133.592 62 133.264 61.7305 133.088 61.1914C132.502 60.1309 132.127 59.5098 131.963 59.3281C131.67 59.1582 131.459 59.0732 131.33 59.0732V59.0205H131.717C132.068 59.0205 132.596 58.9473 133.299 58.8008Z" fill="black"/>
<path d="M65.2619 53C64.5874 53 63.7741 53.9719 63.3667 54.5779C62.9709 53.9514 62.2936 53 61.619 53C60.6691 53 60 53.9099 60 55.0238C60 55.6214 60.8095 56.4848 61.2143 57.0476C61.619 57.6104 62.5447 59.2874 63.0611 60.8468C63.3437 61.1781 63.3969 61.1781 63.6794 60.8468C64.1156 59.367 65.3968 57.4854 65.6667 57.0476C65.9365 56.6099 66.881 55.6214 66.881 55.0238C66.881 53.9099 66.2119 53 65.2619 53Z" fill="black"/>
</svg>
